<svg width="15" height="16" viewBox="0 0 15 16" fill="none" xmlns="http://www.w3.org/2000/svg">
<path d="M14.272 13.197L14.271 13.1961L9.87921 8.96431L9.87898 8.96408L8.88737 8.02113L14.271 2.84665C14.384 2.73806 14.4761 2.61699 14.5341 2.4831C14.5911 2.35156 14.6259 2.20795 14.6259 2.0632C14.6259 1.91154 14.6034 1.76651 14.5334 1.63116C14.477 1.50148 14.3973 1.36955 14.2929 1.26923L14.2929 1.26918L14.291 1.26746C14.1791 1.1707 14.0539 1.08272 13.9154 1.02727C13.7764 0.9716 13.6164 0.95 13.4697 0.95C13.3199 0.95 13.1716 0.98322 13.0252 1.03732L13.0252 1.0373L13.024 1.0378C12.8855 1.09324 12.7598 1.18141 12.6574 1.27975L6.4585 7.23788C6.3546 7.33775 6.27435 7.45925 6.21728 7.5909L6.21726 7.59089L6.21673 7.59221C6.16032 7.73319 6.12554 7.87645 6.12554 8.02133C6.12554 8.16608 6.16025 8.30968 6.21728 8.44123C6.27435 8.57288 6.3546 8.69438 6.4585 8.79425L12.6574 14.7524L12.6574 14.7524L12.6584 14.7533C12.8768 14.9521 13.163 15.0505 13.4587 15.0505C13.7568 15.0505 14.0429 14.9295 14.2491 14.7313C14.4663 14.5226 14.5818 14.2575 14.5821 13.9699C14.5933 13.6816 14.4777 13.4057 14.272 13.197Z" fill="#B3B3B3" stroke="#B3B3B3" stroke-width="0.1"/>
<path d="M0.717788 2.80362L0.718705 2.80453L5.11053 7.03627L5.11077 7.0365L6.10238 7.97945L0.718749 13.1539C0.605776 13.2625 0.513662 13.3836 0.455623 13.5175C0.398597 13.649 0.363879 13.7926 0.363879 13.9374C0.363879 14.089 0.386319 14.2341 0.456324 14.3694C0.512726 14.4991 0.592464 14.631 0.696845 14.7314L0.696797 14.7314L0.698782 14.7331C0.810643 14.8299 0.935877 14.9179 1.07433 14.9733C1.21334 15.029 1.3734 15.0506 1.52005 15.0506C1.66984 15.0506 1.81819 15.0174 1.96452 14.9633L1.96453 14.9633L1.96578 14.9628C2.10422 14.9073 2.22999 14.8192 2.3323 14.7208L8.53124 8.7627C8.63515 8.66283 8.7154 8.54133 8.77247 8.40968L8.77249 8.40969L8.77301 8.40837C8.82943 8.26739 8.86421 8.12413 8.86421 7.97925C8.86421 7.8345 8.82949 7.6909 8.77247 7.55935C8.7154 7.4277 8.63515 7.3062 8.53124 7.20633L2.33231 1.24821L2.33232 1.24819L2.33132 1.24728C2.11299 1.04848 1.82675 0.950032 1.531 0.950032C1.23294 0.950032 0.946823 1.0711 0.740655 1.26926C0.52347 1.47801 0.407955 1.74311 0.407689 2.03066C0.396445 2.31894 0.512006 2.59484 0.717788 2.80362Z" fill="#B3B3B3" stroke="#B3B3B3" stroke-width="0.1"/>
</svg>
