<svg width="18" height="18" viewBox="0 0 18 18" fill="none" xmlns="http://www.w3.org/2000/svg">
<path d="M17.3097 8.73206C17.3097 9.10788 17.1656 9.47119 16.8961 9.73427C16.6329 10.0036 16.2695 10.1539 15.8935 10.1539H10.229V15.8164C10.229 16.1923 10.0786 16.5556 9.80914 16.8186C9.54596 17.0817 9.18879 17.2321 8.81283 17.2321C8.43686 17.2321 8.07342 17.0817 7.81025 16.8186C7.5408 16.5556 7.39041 16.1923 7.39041 15.8164V10.1539H1.72584C1.34987 10.1539 0.986434 10.0036 0.723257 9.73427C0.460079 9.47119 0.309692 9.10788 0.309692 8.73206C0.309692 8.35623 0.460079 7.99919 0.723257 7.72985C0.986434 7.46676 1.34987 7.31643 1.72584 7.31643H7.39041V1.65394C7.39041 1.27811 7.5408 0.914812 7.81025 0.651731C8.07342 0.382387 8.43686 0.232056 8.81283 0.232056C9.18879 0.232056 9.54596 0.382387 9.80914 0.651731C10.0786 0.914812 10.229 1.27811 10.229 1.65394V7.31643H15.8935C16.2695 7.31643 16.6329 7.46676 16.8961 7.72985C17.1656 7.99919 17.3097 8.35623 17.3097 8.73206Z" fill="#53B175"/>
</svg>
